<svg xmlns="http://www.w3.org/2000/svg" viewBox="0 0 38 38"><rect width="38" height="38" fill="#6C63FF" rx="5"/><path fill="#F7F7F7" fill-rule="evenodd" d="M19.125 8.549c.214.368.196.827-.046 1.178a6.61 6.61 0 0 0 9.194 9.194 1.102 1.102 0 0 1 1.723 1C29.52 25.567 24.786 30 19.018 30 12.933 30 8 25.067 8 18.982c0-5.769 4.433-10.501 10.08-10.978.424-.036.831.176 1.045.545m-2.945 2.086a8.819 8.819 0 0 0-5.976 8.347 8.814 8.814 0 0 0 8.814 8.814c3.875 0 7.166-2.5 8.347-5.976A8.814 8.814 0 0 1 16.18 10.634" clip-rule="evenodd"/></svg>