<svg xmlns="http://www.w3.org/2000/svg" viewBox="0 0 198.009 163.872"><path fill="#6c63ff" d="M100.443 163.784c41.488-.874 74.983-8.08 74.814-16.096-.17-8.015-33.94-13.804-75.43-12.929-41.487.875-74.982 8.081-74.813 16.096.17 8.016 33.94 13.804 75.429 12.93"/><path fill="#fff" d="M100.443 163.784c41.488-.874 74.983-8.08 74.814-16.096-.17-8.015-33.94-13.804-75.43-12.929-41.487.875-74.982 8.081-74.813 16.096.17 8.016 33.94 13.804 75.429 12.93" opacity=".7"/><path fill="#6c63ff" d="M183.43 100.857s23.69-22.313 10.674-51.94c-3.615-8.233-9.463-15.289-16.735-20.593-16.3-11.872-57.507-35.36-119.511-26.288a46.282 46.282 0 0 0-18.673 7c-9.1 5.96-18.747 16.905-14.645 35.671 1.45 6.625 1.123 13.543-1.276 19.895-2.37 6.296-6.857 14.014-15.21 22.343 0 0-17.796 17.161-.481 32.013a31.602 31.602 0 0 0 12.786 6.566c21.598 5.512 108.894 23.816 163.072-24.667"/><path fill="#fff" d="M183.43 100.857s23.69-22.313 10.674-51.94c-3.615-8.233-9.463-15.289-16.735-20.593-16.3-11.872-57.507-35.36-119.511-26.288a46.282 46.282 0 0 0-18.673 7c-9.1 5.96-18.747 16.905-14.645 35.671 1.45 6.625 1.123 13.543-1.276 19.895-2.37 6.296-6.857 14.014-15.21 22.343 0 0-17.796 17.161-.481 32.013a31.602 31.602 0 0 0 12.786 6.566c21.598 5.512 108.894 23.816 163.072-24.667" opacity=".7"/><path fill="#f1f1f1" d="M60.004 153.211s.955 1.067.942 1.462c-1.324.302-2.67.498-4.026.59-1.802.073-4.523-.602-5-.82-.478-.22-.34-.824-.34-.824s1.478-.668 2.553-.663c1.075.005 4.064.206 5.87.255m1.834 1.381s-.33-.963-.972-1.412c0 0 2.215-.374 3.218.36 1.004.733-1.355.97-2.246 1.052m12.51-3.88s.866-1.02.818-1.422a28.155 28.155 0 0 0-4.118-.714c-1.828-.135-4.513.443-4.975.647-.462.204-.255.808-.255.808s1.552.713 2.63.744c1.076.031 4.078-.084 5.9-.064m1.719-1.312s-.256.948-.853 1.371c0 0 2.27.448 3.217-.255.947-.703-1.453-1.004-2.364-1.116m-43.585 3.165v-1.274c.355.05.695.178.993.377.656.476-.122.746-.993.897m10.456-2.03s.78-1.094.7-1.484a28.623 28.623 0 0 0-4.164-.387c-1.83 0-4.462.807-4.904 1.047-.441.24-.202.825-.202.825s1.606.587 2.68.53c1.076-.056 4.072-.405 5.89-.532m1.61-1.447s-.165.963-.74 1.434c0 0 2.298.255 3.189-.509.89-.765-1.535-.885-2.448-.925m45.003 4.948s1.02.994 1.049 1.39a26.316 26.316 0 0 1-3.972.888c-1.787.206-4.56-.255-5.05-.449-.49-.193-.4-.795-.4-.795s1.425-.764 2.489-.85c1.065-.087 4.077-.09 5.884-.184m1.93 1.243s-.401-.937-1.075-1.335c0 0 2.18-.54 3.237.117 1.057.658-1.28 1.071-2.162 1.218m11.492-3.995s.927-.976.9-1.37a28.21 28.21 0 0 0-4.068-.964c-1.815-.255-4.531.178-5.003.352-.472.173-.314.79-.314.79s1.506.805 2.58.9c1.076.093 4.088.165 5.905.292m1.8-1.208s-.301.933-.934 1.318c0 0 2.24.581 3.226-.056.985-.637-1.388-1.096-2.292-1.262m13.644 3.137s.952 1.067.942 1.462a25.822 25.822 0 0 1-4.028.59c-1.802.073-4.526-.602-5.003-.82-.478-.22-.337-.824-.337-.824s1.475-.668 2.552-.663c1.078.005 4.064.206 5.874.255m1.83 1.381s-.33-.963-.972-1.412c0 0 2.215-.374 3.22.36 1.007.733-1.357.97-2.248 1.052m11.722-2.194s.78-1.096.702-1.485a28.659 28.659 0 0 0-4.166-.388c-1.83.016-4.46.808-4.904 1.048-.444.24-.2.825-.2.825s1.604.586 2.679.53c1.075-.056 4.059-.395 5.889-.53m1.6-1.437s-.168.963-.74 1.435c0 0 2.298.254 3.186-.51.888-.764-1.534-.887-2.445-.925m13.623 3.188s.955 1.065.942 1.462c-1.325.3-2.672.497-4.028.59-1.802.073-4.526-.603-5-.824-.475-.222-.34-.823-.34-.823s1.478-.668 2.553-.663c1.074.005 4.064.214 5.873.258m1.833 1.381s-.33-.966-.975-1.412c0 0 2.216-.375 3.22.36 1.007.733-1.357.978-2.245 1.052m11.099-3.858v1.72c-1.817.148-4.316.435-5.28.481-1.076.056-2.68-.527-2.68-.527s-.254-.586.203-.826c.457-.239 3.063-1.034 4.903-1.047.955.008 1.908.074 2.854.2"/><path fill="#6c63ff" d="M149.485 149.284a8.816 8.816 0 0 0-.51-3.149c-.18-.51-6.165 1.753-6.75 1.944-1.975.652-3.433 1.797-5.135 3.014-.807.58-1.626 1.165-2.553 1.496-.927.331-2.042.4-3.012.737-.97.336-1.938 1.077-2.042 2.107 2.062.657 4.288 1.157 6.38.588 2.023-.548 3.647-2.015 5.5-2.988a15.172 15.172 0 0 1 4.084-1.392c0 .4.02.803.033 1.203a11.165 11.165 0 0 0 3.109-.446.93.93 0 0 0 .368-.173.892.892 0 0 0 .214-.372c.295-.822.403-1.7.314-2.569m-44.83-1.768c-.896 0-1.838-.036-2.637.375-.975.51-1.531 1.528-2.02 2.515a30.178 30.178 0 0 0 17.747-2.067 3.893 3.893 0 0 1-.217 1.661 31.47 31.47 0 0 0 4.417.143c.156.007.313-.023.456-.087a.976.976 0 0 0 .378-.46 8.552 8.552 0 0 0 .804-2.467 1.544 1.544 0 0 0-.048-.895 1.487 1.487 0 0 0-.911-.675c-2.571-.909-5.346.204-7.85.808a41.588 41.588 0 0 1-10.12 1.15"/><path fill="#f7a48b" d="M94.003 88.285a177.246 177.246 0 0 0-7.602-.05 1.189 1.189 0 0 0-.847.236c-.256.268-.215.701-.11 1.06.485 1.67 2.456 4.258 4.454 3.657 2.063-.617 3.689-2.882 4.105-4.903"/><path fill="#252525" d="m80.773 85.302 10.77 8.283a1.007 1.007 0 0 1 .387.75 1 1 0 0 1-1.641.81l-10.496-8.71z"/><path fill="#f9b499" d="M95.027 84.914c-.93.32-2.211.683-3.03 1.226-.82.543-1.555-.627-2.392-.876-.896-.255-1.687-.074-2.606.058-1.157.168-2.022.764-2.96 1.47a8.703 8.703 0 0 1-3.164 1.488c-.605 1.975 4.22.523 4.832.41.65-.12 1.126-.147 1.738.14 1.443.681 2.078.814 3.732.66 1.039.68 2.354 1.213 3.44.082.622-.644 1.788-1.274 2.312-1.94.3-.396.33-.129.028-.868-.378-.927-1.095-1.322-1.93-1.85"/><path fill="#f9b499" d="M85.28 88.51c-.645.51-1.557.843-2.374 1.202a.6.6 0 0 0 .08 1.13c1.424.374 4.65-1.046 4.34-2.562-.506-.24-1.617-.112-2.045.23"/><path fill="#f9b499" d="M84.134 90.482c-.321.463-.416 1.452 0 1.883 1.328 1.37 3.635-.839 4.38-1.832 1.494-1.993-.857-1.529-2.006-1-.68.3-1.462.618-2.374.95"/><path fill="#f9b499" d="M85.365 92.19c-.092 3.181 5.019.213 4.595-1.84-.347-1.65-1.83.104-2.346.496-.516.393-1.983.68-2.25 1.343"/><path fill="#f9b499" d="M87.328 93.007c.784 2.232 3.959-.319 3.604-2.038-.148-.714-.56-.994-1.212-.452-.345.288-.49.795-.79 1.127-.405.463-1.587.756-1.602 1.363"/><path fill="#6c63ff" d="M80.319 86.782s-15.707-1.437-20.861-14.04l1.787-2.894s12.163.744 19.893 15.673z"/><path fill="#e5e5e5" d="M61.005 73.092s9.445 3.18 17.238 12.161c.002 0-12.51-2.46-17.238-12.16"/><path fill="#fff" d="M66.409 72.05a19.119 19.119 0 0 0-1.683-.704L63.59 73.2c.579.211 1.174.438 1.786.68zm.515.257-1.057 1.784a35.703 35.703 0 0 1 4.146 2.012l.549-1.248a17.684 17.684 0 0 0-3.638-2.548m4.14 4.436c.576.367 1.13.766 1.66 1.195l.413-.51a40.424 40.424 0 0 0-1.585-1.653z" opacity=".3"/><path fill="#fff" d="M100.104 88.347c-.86.45-1.866.665-2.724 1.113a25.1 25.1 0 0 0-2.984-5.012l2.142-1.256c1.108 1.715 2.46 3.44 3.566 5.155"/><path fill="#6c63ff" d="M127.985 100.353a34.94 34.94 0 0 1-22.987 3.075c.868-7.068-.067-14.218-.996-21.278a52583.48 52583.48 0 0 1-2.614-19.803c-.36-2.724-1.506-5.687-1.715-8.426-.21-2.74.855-5.927 3.448-6.847 2.298-.815 4.817.464 6.719 1.998 6.47 5.218 9.7 13.395 12.123 21.34 2.95 9.661 4.658 19.93 6.022 29.941"/><path fill="#000" d="M127.985 100.353a34.94 34.94 0 0 1-22.987 3.075c.868-7.068-.067-14.218-.996-21.278a52583.48 52583.48 0 0 1-2.614-19.803c-.36-2.724-1.506-5.687-1.715-8.426-.21-2.74.855-5.927 3.448-6.847 2.298-.815 4.817.464 6.719 1.998 6.47 5.218 9.7 13.395 12.123 21.34 2.95 9.661 4.658 19.93 6.022 29.941" opacity=".2"/><path fill="#252525" d="M124.43 89.264a150.452 150.452 0 0 0-3.386 25.99c-.118 2.746-.16 5.503-.488 8.232-.434 3.6-1.36 7.134-2.284 10.628a3113.65 3113.65 0 0 1-3.09 11.72c2.063.574 4.163 1 6.286 1.274 1.556.21 3.13.24 4.694.085 4.322-.51 8.199-3.124 12.533-3.504-.023-7.09-.045-14.187-.433-21.268a212.67 212.67 0 0 0-1.37-14.919c-.484-3.788-1.081-7.577-2.12-11.254-.452-1.595-1.006-3.203-2.042-4.508-1.8-2.293-5.496-3.312-8.3-2.476"/><path fill="#000" d="M124.43 89.264a150.452 150.452 0 0 0-3.386 25.99c-.118 2.746-.16 5.503-.488 8.232-.434 3.6-1.36 7.134-2.284 10.628a3113.65 3113.65 0 0 1-3.09 11.72c2.063.574 4.163 1 6.286 1.274 1.556.21 3.13.24 4.694.085 4.322-.51 8.199-3.124 12.533-3.504-.023-7.09-.045-14.187-.433-21.268a212.67 212.67 0 0 0-1.37-14.919c-.484-3.788-1.081-7.577-2.12-11.254-.452-1.595-1.006-3.203-2.042-4.508-1.8-2.293-5.496-3.312-8.3-2.476" opacity=".2"/><path fill="#000" d="M137.35 111.335c-.141-1.28-.293-2.554-.457-3.822-.485-3.789-1.082-7.578-2.121-11.255-.452-1.595-1.006-3.203-2.042-4.507-1.807-2.294-5.504-3.313-8.307-2.477a151.001 151.001 0 0 0-2.192 12.424c4.242 4.31 9.468 7.435 15.119 9.637" opacity=".2"/><path fill="#252525" d="m153.894 144.792-4.97 2.207c-.924.41-1.848.82-2.808 1.146a16.674 16.674 0 0 1-7.22.803c-.864-2.803-1.73-5.606-2.598-8.408-.62-2.006-1.24-4.013-1.661-6.067-.537-2.599-.751-5.254-.965-7.899l-1.693-20.967c5.36-5.152 11.257-9.053 18.239-11.61.659-.256 1.366-.473 2.042-.32a42.377 42.377 0 0 1 .13 18.82c-.454 2.038-1.054 4.056-1.322 6.13-.436 3.38.018 6.801.475 10.174.692 5.17 1.654 10.821 2.35 15.991"/><path fill="#000" d="M152.15 113.5a42.377 42.377 0 0 0 .123-19.823c-.684-.153-1.391.076-2.042.32-6.982 2.546-12.884 6.458-18.24 11.61l.51 6.306c6.439 1.006 13.076 1.738 19.649 1.587" opacity=".2"/><path fill="#252525" d="M112.229 74.264c.65 5.142-.184 11-3.158 12.485-2.973 1.486-6.435 2.038-9.728 2.482-1.302-2.09-2.644-3.983-3.95-6.072 3.488-3.032 8.706-5.682 9.525-10.225a22.882 22.882 0 0 0-.39-9.835c3.604 5.526 4.643 5.31 7.7 11.165"/><path fill="#000" d="M112.229 74.264c.65 5.142-.184 11-3.158 12.485-2.973 1.486-6.435 2.038-9.728 2.482-1.302-2.09-2.644-3.983-3.95-6.072 3.488-3.032 8.706-5.682 9.525-10.225a22.882 22.882 0 0 0-.39-9.835c3.604 5.526 4.643 5.31 7.7 11.165" opacity=".2"/><path fill="#252525" d="M123.579 84.802c-1.787 1.725-4.302 2.587-6.788 2.528-2.078-5.677-5.657-10.656-8.891-15.767-3.234-5.11-6.211-10.61-6.85-16.62-.16-1.53-1.347-2.885-1.47-4.419-.122-1.534.404-3.218 1.693-4.077 1.289-.858 3.14-.644 4.503.16 1.363.806 2.362 2.09 3.28 3.38 7.296 10.243 11.11 22.728 14.523 34.815"/><path fill="#fff" d="M108.066 65.632c-.281-5.24-.625-10.702-3.26-15.243-.577-.994-1.32-1.977-2.394-2.385-4.71-1.783-1.884 6.296-1.2 8.031a24.13 24.13 0 0 0 6.854 9.596"/><path fill="#6c63ff" d="M98.894 47.561a15.497 15.497 0 0 0-.424 7.53c1.364 7.027 3.65 14.523 4.565 21.621 2.106-9.88.576-21.122-4.04-30.112a5.344 5.344 0 0 1-.101.96"/><path fill="#000" d="M98.894 47.561a15.497 15.497 0 0 0-.424 7.53c1.364 7.027 3.65 14.523 4.565 21.621 2.106-9.88.576-21.122-4.04-30.112a5.344 5.344 0 0 1-.101.96" opacity=".4"/><path fill="#6c63ff" d="M101.947 31.208s-4.385 4.046-6.86 3.8c-2.472-.248-1.37-5.276-1.37-5.276s5.527-.486 8.23 1.476"/><path fill="#000" d="M101.947 31.208s-4.385 4.046-6.86 3.8c-2.472-.248-1.37-5.276-1.37-5.276s5.527-.486 8.23 1.476" opacity=".2"/><path fill="#f9b499" d="M94.1 51.707c4.793-2.762 5.709-10.137 2.045-16.47-3.664-6.336-10.52-9.232-15.314-6.47-4.793 2.763-5.71 10.137-2.044 16.472 3.663 6.335 10.52 9.23 15.313 6.468"/><path fill="#252525" d="m84.515 53.454-.123-.764c.194.263.44.483.725.645l.036-.663a1.02 1.02 0 0 0 .95.285c.338-.079.66-.216.952-.405a2.04 2.04 0 0 0 .645-.51.68.68 0 0 0 .062-.764l.809.75-.46-1.35.567.588c.184.215.412.39.669.51a.67.67 0 0 0 .766-.174c.255-.36-.064-.838-.393-1.129a6.868 6.868 0 0 0-5.905-1.523c-.375.078-1.376.285-1.56.67-.124.254.197 1.001.305 1.274.205.505.477.982.809 1.416.183.224 1.12.91 1.146 1.144m-3.72-17.352c.46 1.078 1.14 2.148 2.21 2.63.696.31 1.479.342 2.24.342.914 0 1.827-.034 2.739-.1 1.276 1.386 2.37 2.846 3.08 4.587.695-.413 1.489-.95 2.186-1.364-.72-1.562-1.325-3.233-2.042-4.793 1.988 1.46 4.85 1.8 7.17.966-1.516-3.15-3.423-6.08-5.906-8.53z"/><path fill="#f7b595" d="M92.073 38.651a12.639 12.639 0 0 1-1.557-2.783c-.217-.532.148-1.246.39-1.768a1.936 1.936 0 0 1 1.259-1.103c.267-.03.536.041.753.198.988.984 1.256 2.462 1.404 3.848.082.56.082 1.13 0 1.69a2.182 2.182 0 0 1-.842 1.421 7.374 7.374 0 0 1-1.407-1.504"/><path fill="#6c63ff" d="M95.08 30.68s4.656-.209 6.867.528c0 0-1.595-3.058-8.845-2.943-7.25.114 1.978 2.415 1.978 2.415"/><path fill="#6c63ff" d="M95.08 30.68c-7.936 1.002-15.443 6.842-17.74 14.49-.74-.254-1.318-.962-1.92-1.464-1.813-1.506-4.376-2.66-4.61-5.002-.378-3.768.569-7.53 1.506-11.198 2.297-2.016 4.776-4.444 7.78-5.033 3.543-.69 7.107.816 10.4 2.293 1.253.564 2.243 1.67 3.025 2.768.14.2 1.689 3.13 1.559 3.146"/><path fill="#fff" d="M95.08 30.68c-7.936 1.002-15.443 6.842-17.74 14.49-.74-.254-1.318-.962-1.92-1.464-1.813-1.506-4.376-2.66-4.61-5.002-.378-3.768.569-7.53 1.506-11.198 2.297-2.016 4.776-4.444 7.78-5.033 3.543-.69 7.107.816 10.4 2.293 1.253.564 2.243 1.67 3.025 2.768.14.2 1.689 3.13 1.559 3.146" opacity=".3"/><path fill="#6c63ff" d="M90.496 24.77c-3.293-1.48-6.857-2.987-10.4-2.294-1.565.306-2.984 1.113-4.311 2.1a22.272 22.272 0 0 0-1.971 3.225c-1.261 2.574-1.904 5.537-1.3 8.34.687 3.172 2.837 5.753 5.137 8.107 1.707-4.716 5.399-8.663 9.886-11.096a78.716 78.716 0 0 0-3.85-9.428c2.237.85 4.46 1.713 6.673 2.592 1.116.445 2.237.904 3.304 1.455a4.033 4.033 0 0 0-.138-.235c-.786-1.098-1.777-2.204-3.03-2.767"/><path fill="#6c63ff" d="M83.688 23.724a78.715 78.715 0 0 1 3.85 9.428 21.528 21.528 0 0 1 7.542-2.466c.11-.016-1.021-2.174-1.422-2.91-1.067-.55-2.187-1.02-3.303-1.455a426.405 426.405 0 0 0-6.667-2.597"/><path fill="#000" d="M82.65 36.785c-1.145-2.436-3.11-4.385-5.155-6.14-.865-.747-1.83-1.498-2.97-1.6-.923-.082-2.008.313-2.434 1.136 1.95.95 3.653 1.84 5.386 3.22.855.684 1.682 1.402 2.59 2.014.427.285 2.42 1.02 2.584 1.37" opacity=".2"/><path fill="#6c63ff" d="m75.419 43.706.73 5.893s1.859-2.252 2.283-7.195c0 0-1.902.07-3.012 1.302m13.677-11.224a23.531 23.531 0 0 1-6.67 4.512c-1.956-1.906-4.192-4.224-6.734-5.23a20.773 20.773 0 0 0-2.001-.65l-2.252-.64a9.635 9.635 0 0 1 .766-4.184c.45-1.065 1.759-1.73 2.683-2.423 2.057-1.529 5.455-1.868 8.01-1.577 1.128 1.633 6.042 8.704 6.415 9.726-.003-.1-.21.575-.217.466"/><path fill="#fff" d="M89.097 32.482a23.531 23.531 0 0 1-6.67 4.512c-1.956-1.906-4.192-4.224-6.734-5.23a20.773 20.773 0 0 0-2.001-.65l-2.252-.64a9.635 9.635 0 0 1 .766-4.184c.45-1.065 1.759-1.73 2.683-2.423 2.057-1.529 5.455-1.868 8.01-1.577 1.128 1.633 6.042 8.704 6.415 9.726-.003-.1-.21.575-.217.466" opacity=".3"/><path fill="#6c63ff" d="M82.907 22.3a16.61 16.61 0 0 0-1.16-.084c-.668.092-1.33.23-1.98.413-2.502.706-4.85 2.206-6.18 4.436a14.559 14.559 0 0 1 6.8-3.545c-2.604 1.73-5.294 3.568-6.872 6.25 3.064.11 5.415 2.643 7.39 4.985.6.69 1.165 1.41 1.69 2.16a23.558 23.558 0 0 0 6.502-4.433c0 .102.186-.474.219-.466-.398-1.058-5.286-8.088-6.41-9.716"/><path fill="#fff" d="M102.935 51.05c-2.011-.544-4.104-.778-6.182-.954.408-4.863.815-9.727 1.22-14.592 1.276-.13 2.5-.133 3.729.24 1.22 4.797 1.517 10.362 1.233 15.305"/><path fill="#402c35" d="M100.599 41.846c-.105 2.448-.143 4.978.766 7.251.909 2.273 3.03 4.24 5.486 4.23l-3.27-14.615c-.212-.943-.43-1.906-.924-2.737-1.04-1.75-2.385-1.799-2.15.367.17 1.83.2 3.67.092 5.504"/><path fill="#6c63ff" d="M101.96 35.471c.409 5.653.448 11.326.117 16.984 7.357 8.017 12.914 17.447 16.702 27.64 3.788 10.191 6.242 20.818 8.679 31.41 5.94.668 11.153-2.695 15.827-6.416 4.674-3.72 9.064-8.072 14.678-10.125-1.64-7.234-3.275-14.718-6.083-21.577-2.076-5.04-4.531-10.054-8.391-13.907-3.505-3.495-7.972-5.84-12.365-8.128-9.662-5.032-19.513-10.85-29.164-15.88"/><mask id="b" width="52" height="46" x="113" y="40" maskUnits="userSpaceOnUse"><path fill="url(#a)" d="M163.371 78.455c-2.075-5.04-4.531-10.054-8.39-13.907-3.505-3.495-7.972-5.84-12.366-8.128-9.649-5.032-19.499-10.85-29.151-15.881.281 3.862.386 7.731.316 11.606.73 1.174 1.468 2.349 2.203 3.536 1.483 2.413 3.781 4.197 6.035 5.932 2.662 2.051 5.36 4.123 8.424 5.496 2.371 1.065 4.914 1.69 7.369 2.548a40.036 40.036 0 0 1 19.814 15.354 94.846 94.846 0 0 0 6.596-4.35c-.278-.738-.561-1.477-.85-2.206" style="mix-blend-mode:multiply"/></mask><g mask="url(#b)" transform="translate(-11.491 -5.068)"><path fill="#fff" d="M163.371 78.455c-2.075-5.04-4.531-10.054-8.39-13.907-3.505-3.495-7.972-5.84-12.366-8.128-9.649-5.032-19.499-10.85-29.151-15.881.281 3.862.386 7.731.316 11.606.73 1.174 1.468 2.349 2.203 3.536 1.483 2.413 3.781 4.197 6.035 5.932 2.662 2.051 5.36 4.123 8.424 5.496 2.371 1.065 4.914 1.69 7.369 2.548a40.036 40.036 0 0 1 19.814 15.354 94.846 94.846 0 0 0 6.596-4.35c-.278-.738-.561-1.477-.85-2.206" opacity=".1"/></g><path fill="#252525" d="M112.857 65.866c.669-.535.725-1.465.38-2.194-.344-.729-1.005-1.305-1.654-1.86-.648-.556-1.312-1.142-1.644-1.868-.331-.726-.255-1.66.417-2.186a.218.218 0 0 1 .296.02c-.22.642-.44 1.343-.136 1.96.35.706 1.254 1.05 1.99 1.483 1.668.978 2.702 2.897 1.972 4.512a1.169 1.169 0 0 1-.86.75c-.424.048-1.075-.365-.761-.617"/><path fill="#6c63ff" d="M109.273 67.336a8.555 8.555 0 0 0 4.386 3.287 3.241 3.241 0 0 0 1.513.188 1.466 1.466 0 0 0 1.162-.892c.207-.616-.146-1.273-.495-1.819a67.218 67.218 0 0 0-2.168-3.198z"/><path fill="#fff" d="M109.273 67.336a8.555 8.555 0 0 0 4.386 3.287 3.241 3.241 0 0 0 1.513.188 1.466 1.466 0 0 0 1.162-.892c.207-.616-.146-1.273-.495-1.819a67.218 67.218 0 0 0-2.168-3.198z" opacity=".3"/><path fill="#f9b499" d="M123.609 65.866c-.511.418-2.267 1.167-2.867.9-.472-.21-.551-.93-1.064-1.127-.981-.37-2.17.443-3.038.764-.781.286-2.97-.097-2.826.9.18 1.274 2.895 1.47 3.898 1.43-1.202.493-2.323 1.12-3.52 1.553-1.483-.598-2.228-1.42-3.921-1.213-.27 1.094 1.746 1.603 2.356 2.276.36.397.455.836 1.006.986.437.117 1.593 0 2.042-.168.255.927 1.006.897 1.802.9.406 0 .587.547.98.654.32.09.723-.107 1.068-.084 1.899.133 2.925-1.89 4.012-2.533.743-.44 1.915-1.274 2.704-1.457-.291-.984-2.573-3.588-2.632-3.78"/><path fill="#fff" d="m113.67 64.902-4.397 2.434c.2.29.417.57.65.833a66.025 66.025 0 0 1 4.389-2.352c-.212-.306-.424-.614-.641-.915" opacity=".3"/><path fill="#fff" d="M128.24 69.588c-.82.37-1.754.85-2.573 1.216-.932-1.764-1.9-3.366-2.831-5.13l2.675-1.052c1.026 1.58 1.703 3.392 2.729 4.966"/><path fill="#252525" d="M141.924 67.38a27.26 27.26 0 0 1-13.853 3.582c-1.45-2.103-3.12-4.057-4.291-6.324a74.532 74.532 0 0 0 6.974-5.527c4.549 1.162 9.052 4.087 11.17 8.268"/><path fill="#6c63ff" d="m155.502 71.566-4.671-11.038c-1.256-2.974-2.586-6.047-4.998-8.195-3.064-2.72-7.342-3.51-10.977-5.42-5.506-2.896-9.383-8.316-14.98-11.037-5.906-2.872-12.688-2.28-19.231-1.687 2.527 4.826.342 10.977 2.415 16.014 1.404 3.407 4.61 5.812 8.059 7.135 3.448 1.322 7.173 1.676 10.84 2.084 3.669.407 7.404.886 10.76 2.397 6.602 2.961 10.847 9.38 14.729 15.474 2.9-1.32 5.994-3.327 8.054-5.728"/><path fill="#000" d="m155.502 71.566-4.671-11.038c-1.256-2.974-2.586-6.047-4.998-8.195-3.064-2.72-7.342-3.51-10.977-5.42-5.506-2.896-9.383-8.316-14.98-11.037-5.906-2.872-12.688-2.28-19.231-1.687 2.527 4.826.342 10.977 2.415 16.014 1.404 3.407 4.61 5.812 8.059 7.135 3.448 1.322 7.173 1.676 10.84 2.084 3.669.407 7.404.886 10.76 2.397 6.602 2.961 10.847 9.38 14.729 15.474 2.9-1.32 5.994-3.327 8.054-5.728" opacity=".4"/><path fill="#000" d="M107.938 51.498a27.143 27.143 0 0 0 5.522-3.473c-1.39-1.178-2.127-2.928-2.808-4.612l-3.967-9.683c-2.006.082-4.026.255-6.022.444 2.527 4.826.342 10.976 2.415 16.014 1.404 3.407 4.61 5.812 8.059 7.134 2.19.833 4.493 1.274 6.823 1.608-3.727-1.926-7.178-4.25-10.022-7.432" opacity=".2"/><path fill="#6c63ff" d="M100.096 33.465c.108 4.311-.012 9.787 1.238 13.915 1.25 4.128 3.699 6.956 7.55 8.918-1.438-1.6-2.082-3.93-2.138-6.077 1.5-.232 3.04-1.073 4.194-2.056-2.042-4.783-3.83-9.886-4.835-14.985z"/><path fill="#fff" d="M100.096 33.465c.108 4.311-.012 9.787 1.238 13.915 1.25 4.128 3.699 6.956 7.55 8.918-1.438-1.6-2.082-3.93-2.138-6.077 1.5-.232 3.04-1.073 4.194-2.056-2.042-4.783-3.83-9.886-4.835-14.985z" opacity=".3"/><path fill="#000" d="M116.015 54.583c4.574.711 9.164-.764 13.726-1.547 4.56-.782 9.774-.708 13.159 2.441-3.32-.81-7.263-1.625-10.683-1.393-1.346.091-2.676.346-4.008.563-4.112.672-8.286 1.38-12.194-.064m22.359-4.026a13.502 13.502 0 0 0-6.088-.219c-3.408.665-6.522 2.642-9.986 2.831 4.533-.86 9.409-1.514 13.945-2.375.75-.143 1.419-.525 2.129-.237m8.204 19.141a29.492 29.492 0 0 0-8.54-9.415 14.585 14.585 0 0 1 8.54 9.415" opacity=".2"/><mask id="d" width="62" height="77" x="44" y="78" maskUnits="userSpaceOnUse"><path fill="url(#c)" d="m72.498 78.16-27.977 75.955h61.121L89.736 90.321Z" style="mix-blend-mode:multiply"/></mask><g mask="url(#d)" transform="translate(-11.491 -5.068)"><path fill="#e5e5e5" d="m72.498 78.16-27.977 75.955h61.121L89.736 90.321Z" opacity=".5"/></g><path stroke="#f7a48b" stroke-miterlimit="10" d="M87.009 89.32a8.667 8.667 0 0 1-3.045 1.567m5.008-1.129a12.76 12.76 0 0 1-3.53 2.994m2.052.622s1.81-1.042 2.458-3.025"/><defs><linearGradient id="a" x1="138.858" x2="144.246" y1="65.838" y2="88.649" gradientUnits="userSpaceOnUse"><stop stop-color="#fff"/><stop offset="1"/></linearGradient><linearGradient id="c" x1="91.46" x2="82.279" y1="88.074" y2="125.234" gradientUnits="userSpaceOnUse"><stop stop-color="#fff"/><stop offset="1"/></linearGradient></defs></svg>