<svg xmlns="http://www.w3.org/2000/svg" viewBox="0 0 38 38"><rect width="38" height="38" fill="#6c63ff" rx="5"/><path fill="#f7f7f7" fill-rule="evenodd" d="M20.158 9.158a1.158 1.158 0 1 0-2.316 0v.58a1.158 1.158 0 0 0 2.316 0zm6.62 3.7a1.158 1.158 0 0 0-1.637-1.636l-.411.41a1.158 1.158 0 0 0 1.637 1.638zm-13.92-1.636a1.158 1.158 0 0 0-1.636 1.637l.41.411a1.158 1.158 0 0 0 1.638-1.637zm-3.7 6.62a1.158 1.158 0 0 0 0 2.316h.58a1.158 1.158 0 1 0 0-2.316zm19.103 0a1.158 1.158 0 1 0 0 2.316h.581a1.158 1.158 0 1 0 0-2.316zM13.27 26.367a1.158 1.158 0 1 0-1.637-1.637l-.411.411a1.158 1.158 0 0 0 1.637 1.637zm13.097-1.637a1.158 1.158 0 1 0-1.637 1.637l.41.411a1.158 1.158 0 0 0 1.638-1.637zm-6.21 3.531a1.158 1.158 0 1 0-2.315 0v.581a1.158 1.158 0 0 0 2.316 0zM14.37 19a4.631 4.631 0 1 1 9.262 0 4.631 4.631 0 0 1-9.262 0M19 12.054a6.946 6.946 0 1 0 0 13.892 6.946 6.946 0 0 0 0-13.892" clip-rule="evenodd"/></svg>